<?xml version="1.0" encoding="utf-8"?>
<!-- Generator: Adobe Illustrator 22.1.0, SVG Export Plug-In . SVG Version: 6.00 Build 0)  -->
<svg version="1.1" id="Ebene_1" xmlns="http://www.w3.org/2000/svg" xmlns:xlink="http://www.w3.org/1999/xlink" x="0px" y="0px"
	 viewBox="0 0 283.5 141.7" style="enable-background:new 0 0 283.5 141.7;" xml:space="preserve">
<style type="text/css">
	.st0{fill:#333333;}
	.st1{fill:url(#SVGID_1_);}
	.st2{fill:url(#SVGID_2_);}
	.st3{fill:url(#SVGID_3_);}
	.st4{fill:url(#SVGID_4_);}
	.st5{opacity:0.54;fill:#FFFFFF;}
	.st6{fill:url(#SVGID_5_);}
	.st7{fill:url(#SVGID_6_);}
	.st8{fill:url(#SVGID_7_);}
	.st9{fill:url(#SVGID_8_);}
</style>
<path class="st0" d="M71.1,113.4c-23.4,0-42.5-19.1-42.5-42.5s19.1-42.5,42.5-42.5s42.5,19.1,42.5,42.5S94.6,113.4,71.1,113.4z
	 M71.1,35.4c-19.5,0-35.4,15.9-35.4,35.4s15.9,35.4,35.4,35.4s35.4-15.9,35.4-35.4S90.7,35.4,71.1,35.4z"/>
<linearGradient id="SVGID_1_" gradientUnits="userSpaceOnUse" x1="5.5971" y1="135.2912" x2="74.3682" y2="79.9581" gradientTransform="matrix(0.9939 -0.1106 0.1106 0.9939 11.3599 -18.373)">
	<stop  offset="0" style="stop-color:#FF0000"/>
	<stop  offset="8.388249e-02" style="stop-color:#FF2B2B"/>
	<stop  offset="0.1759" style="stop-color:#FF5353"/>
	<stop  offset="0.2666" style="stop-color:#FF7272"/>
	<stop  offset="0.3543" style="stop-color:#FF8989"/>
	<stop  offset="0.4376" style="stop-color:#FF9696"/>
	<stop  offset="0.5119" style="stop-color:#FF9B9B"/>
	<stop  offset="0.564" style="stop-color:#FF8080"/>
	<stop  offset="0.6753" style="stop-color:#FF3B3B"/>
	<stop  offset="0.764" style="stop-color:#FF0000"/>
	<stop  offset="0.8068" style="stop-color:#FF0B0B"/>
	<stop  offset="0.8833" style="stop-color:#FF2A2A"/>
	<stop  offset="0.9839" style="stop-color:#FF5B5B"/>
	<stop  offset="1" style="stop-color:#FF6464"/>
</linearGradient>
<path class="st1" d="M84,65.9c2.6-1.1,5.2-2.3,7.7-3.7c2.5-1.3,4.9-2.8,7.1-4.5c2.2-1.7,4.3-3.5,6.1-5.7c1.8-2.2,3.1-4.9,3.5-7.9
	c0.3-3-0.6-6.3-2.7-9c-2-2.7-5.1-4.9-8.6-6.1c-3.3-1-6.4-1.2-9.5-1c-2.2,0.2-4.4,0.7-6.4,1.4c5.3,1.3,10.1,3.5,14.4,6.5
	c2.9,1.6,4.3,4.4,3.7,7c-0.4,1.6-1.3,3-2.6,4.2c-2.7,2.5-6.2,4.5-10.3,6.4c-2,1-7,2.9-11.2,3.9c0-0.6-0.2-5.1-0.1-7.2
	c0.4-4.2,1.6-8.1,3.7-10.9c0.7-0.9,1.6-1.7,2.6-2.4c-2.7-0.8-5.5-1.3-8.4-1.5c-0.1,0.1-0.2,0.2-0.2,0.3c-1.6,2.1-2.6,4.5-3.2,6.8
	c-0.6,2.4-1,4.8-1,7.3c-0.1,3,0.1,5.9,0.5,8.9c-4.4,0.9-8.9,1.9-13.5,3c-5.9,1.5-12.1,3.2-18.3,6.5c-1.6,0.8-3.2,1.8-4.7,2.9
	c-1.5,1.1-3.1,2.3-4.5,3.7c-1.4,1.4-2.8,3-4.1,4.7c-1.3,1.8-2.4,3.7-3.3,5.8c-1.9,4.2-2.9,9.1-2.5,14c0.3,4.9,1.9,9.7,4.4,13.9
	c1.3,2.1,2.8,4.1,4.7,5.9c0.9,0.9,1.9,1.7,3,2.5c1.1,0.8,2.2,1.5,3.5,2.1c2,1,4,1.8,6.2,2.5c2.2,0.7,4.5,1.2,6.9,1.6
	c2.4,0.3,4.9,0.4,7.5,0.2c2.6-0.2,5.2-0.8,7.6-1.7c2.5-0.9,4.8-2.2,6.8-3.6c2-1.5,3.7-3.2,5.1-4.9c1.3-1.5,2.3-3.2,3.2-4.8
	c-1.9,0.3-3.8,0.4-5.7,0.4c-6.7,0-13-1.5-18.6-4.3c-0.2-0.1-0.3-0.2-0.4-0.3c-5.5-1.8-9.3-7.3-8.8-13c0.1-1.4,0.5-2.7,1-4.1
	c0.5-1.4,1.2-2.8,2.2-4.3c1-1.5,2.4-3,4-4.5c3.1-2.9,7.2-5.7,11.6-8c2.9-1.5,5.9-2.8,9-4.1c0.1,0.4,2.2,25.4-6.4,34.9
	c2.1,0.4,4.3,0.6,6.5,0.6c3,0,6-0.4,8.8-1.1c4.3-15.1-2.6-36.7-2.6-36.7c0.8-0.3,1.7-0.6,2.6-0.9C81.3,67,82.7,66.5,84,65.9z"/>
<linearGradient id="SVGID_2_" gradientUnits="userSpaceOnUse" x1="31.1512" y1="121.4938" x2="55.4013" y2="90.0864">
	<stop  offset="0" style="stop-color:#000001;stop-opacity:0.8"/>
	<stop  offset="5.471998e-02" style="stop-color:#070707;stop-opacity:0.7562"/>
	<stop  offset="0.2045" style="stop-color:#121211;stop-opacity:0.6364"/>
	<stop  offset="0.4149" style="stop-color:#191917;stop-opacity:0.4681"/>
	<stop  offset="1" style="stop-color:#1B1B19;stop-opacity:0"/>
</linearGradient>
<path class="st2" d="M105.6,35.1c-2-2.7-5.1-4.9-8.6-6.1c-3.3-1-6.4-1.2-9.5-1c-3,0.2-6,1.1-8.6,2.4c-2.6,1.3-4.7,3.2-6.2,5.3
	c-1.6,2.1-2.6,4.5-3.2,6.8c-0.6,2.4-1,4.8-1,7.3c-0.1,3,0.1,5.9,0.5,8.9c-4.4,0.9-8.9,1.9-13.5,3c-5.9,1.5-12.1,3.2-18.3,6.5
	c-1.6,0.8-3.2,1.8-4.7,2.9c-1.5,1.1-3.1,2.3-4.5,3.7c-1.4,1.4-2.8,3-4.1,4.7c-1.3,1.8-2.4,3.7-3.3,5.8c-1.9,4.2-2.9,9.1-2.5,14
	c0.3,4.9,1.9,9.7,4.4,13.9c1.3,2.1,2.8,4.1,4.7,5.9c0.9,0.9,1.9,1.7,3,2.5c1.1,0.8,2.2,1.5,3.5,2.1c2,1,4,1.8,6.2,2.5
	c2.2,0.7,4.5,1.2,6.9,1.6c2.4,0.3,4.9,0.4,7.5,0.2c2.6-0.2,5.2-0.8,7.6-1.7c2.5-0.9,4.8-2.2,6.8-3.6c2-1.5,3.7-3.2,5.1-4.9
	c2.8-3.4,4.4-7.1,5.6-10.6c5.6-15.1-2-38.7-2-38.7c0.8-0.3,1.7-0.6,2.6-0.9c1.4-0.5,2.7-1,4-1.6c2.6-1.1,5.2-2.3,7.7-3.7
	c2.5-1.3,4.9-2.8,7.1-4.5c2.2-1.7,4.3-3.5,6.1-5.7c1.8-2.2,3.1-4.9,3.5-7.9C108.6,41.2,107.7,37.9,105.6,35.1z M63.2,107.1
	c-10.2,6.6-20.7-2.2-19.9-11.3c0.1-1.4,0.5-2.7,1-4.1c0.5-1.4,1.2-2.8,2.2-4.3c1-1.5,2.4-3,4-4.5c3.1-2.9,7.2-5.7,11.6-8
	c2.9-1.5,5.9-2.8,9-4.1C71.1,71.2,73.5,98.9,63.2,107.1z M99.2,43c-0.4,1.6-1.3,3-2.6,4.2c-2.7,2.5-6.2,4.5-10.3,6.4
	c-2,1-7,2.9-11.2,3.9c0-0.6-0.2-5.1-0.1-7.2c0.4-4.2,1.6-8.1,3.7-10.9c1.1-1.4,2.4-2.5,4-3.3c1.6-0.8,3.5-1.3,5.5-1.4
	C95.9,34.1,100.1,38.8,99.2,43z"/>
<linearGradient id="SVGID_3_" gradientUnits="userSpaceOnUse" x1="113.6494" y1="70.0074" x2="94.4913" y2="73.6061">
	<stop  offset="4.214744e-02" style="stop-color:#FFFFFF;stop-opacity:0.8"/>
	<stop  offset="0.1775" style="stop-color:#FFFFFF;stop-opacity:0.6869"/>
	<stop  offset="1" style="stop-color:#FFFFFF;stop-opacity:0"/>
</linearGradient>
<path class="st3" d="M105.6,35.1c-2-2.7-5.1-4.9-8.6-6.1c-3.3-1-6.4-1.2-9.5-1c-3,0.2-6,1.1-8.6,2.4c-2.6,1.3-4.7,3.2-6.2,5.3
	c-1.6,2.1-2.6,4.5-3.2,6.8c-0.6,2.4-1,4.8-1,7.3c-0.1,3,0.1,5.9,0.5,8.9c-4.4,0.9-8.9,1.9-13.5,3c-5.9,1.5-12.1,3.2-18.3,6.5
	c-1.6,0.8-3.2,1.8-4.7,2.9c-1.5,1.1-3.1,2.3-4.5,3.7c-1.4,1.4-2.8,3-4.1,4.7c-1.3,1.8-2.4,3.7-3.3,5.8c-1.9,4.2-2.9,9.1-2.5,14
	c0.3,4.9,1.9,9.7,4.4,13.9c1.3,2.1,2.8,4.1,4.7,5.9c0.9,0.9,1.9,1.7,3,2.5c1.1,0.8,2.2,1.5,3.5,2.1c2,1,4,1.8,6.2,2.5
	c2.2,0.7,4.5,1.2,6.9,1.6c2.4,0.3,4.9,0.4,7.5,0.2c2.6-0.2,5.2-0.8,7.6-1.7c2.5-0.9,4.8-2.2,6.8-3.6c2-1.5,3.7-3.2,5.1-4.9
	c2.8-3.4,4.4-7.1,5.6-10.6c5.6-15.1-2-38.7-2-38.7c0.8-0.3,1.7-0.6,2.6-0.9c1.4-0.5,2.7-1,4-1.6c2.6-1.1,5.2-2.3,7.7-3.7
	c2.5-1.3,4.9-2.8,7.1-4.5c2.2-1.7,4.3-3.5,6.1-5.7c1.8-2.2,3.1-4.9,3.5-7.9C108.6,41.2,107.7,37.9,105.6,35.1z M63.2,107.1
	c-10.2,6.6-20.7-2.2-19.9-11.3c0.1-1.4,0.5-2.7,1-4.1c0.5-1.4,1.2-2.8,2.2-4.3c1-1.5,2.4-3,4-4.5c3.1-2.9,7.2-5.7,11.6-8
	c2.9-1.5,5.9-2.8,9-4.1C71.1,71.2,73.5,98.9,63.2,107.1z M99.2,43c-0.4,1.6-1.3,3-2.6,4.2c-2.7,2.5-6.2,4.5-10.3,6.4
	c-2,1-7,2.9-11.2,3.9c0-0.6-0.2-5.1-0.1-7.2c0.4-4.2,1.6-8.1,3.7-10.9c1.1-1.4,2.4-2.5,4-3.3c1.6-0.8,3.5-1.3,5.5-1.4
	C95.9,34.1,100.1,38.8,99.2,43z"/>
<linearGradient id="SVGID_4_" gradientUnits="userSpaceOnUse" x1="53.6304" y1="88.0046" x2="57.5576" y2="87.7952" gradientTransform="matrix(0.9939 -0.1106 0.1106 0.9939 11.3599 -18.373)">
	<stop  offset="0" style="stop-color:#40403F"/>
	<stop  offset="0.1546" style="stop-color:#545453"/>
	<stop  offset="0.5322" style="stop-color:#7F7F7E"/>
	<stop  offset="0.8267" style="stop-color:#9A9A99"/>
	<stop  offset="1" style="stop-color:#A4A4A3"/>
</linearGradient>
<path class="st4" d="M77.3,68.5c-2.2-8.6-2.2-10.9-2.2-10.9l2.5-0.7c0,0-0.8,5.5,2.5,10.6L77.3,68.5z"/>
<g>
	<path class="st5" d="M69,58.8c-4.4,0.9-8.9,1.9-13.5,3c-5.9,1.5-12.1,3.2-18.3,6.5c-1.6,0.8-3.2,1.8-4.7,2.9
		c-1.5,1.1-3.1,2.3-4.5,3.7c-1.4,1.4-2.8,3-4.1,4.7c-1.3,1.8-2.4,3.7-3.3,5.8c-1.8,4-2.7,8.5-2.5,13c0-4.2,0.9-8.3,2.6-12
		c0.9-2.1,2.1-4,3.4-5.8c1.3-1.7,2.7-3.3,4.1-4.7c1.4-1.4,3-2.6,4.5-3.7c1.5-1.1,3.1-2.1,4.7-2.9c6.2-3.3,12.5-5.1,18.4-6.5
		c4.6-1.1,9.1-2.1,13.5-3L69,58.8z"/>
	<path class="st5" d="M75.1,57.5c4.2-1,9.2-2.9,11.2-3.9c1.9-0.9,3.7-1.8,5.4-2.8c0,0,0,0,0,0l0,0c7.9-4.3,10.7-9.9,10-14.5
		c1.3,4.7-1.4,10.7-9.8,15.3l0,0c0,0,0,0,0,0c-1.7,1-3.5,1.9-5.4,2.8c-2,1-7.1,2.9-11.3,3.9L75.1,57.5z"/>
	<path class="st5" d="M75.1,57.9c11-2.8,16.2-6.9,16.2-6.9c-1.6,0.9-3.2,1.8-5,2.6c-2,1-7,2.9-11.2,3.9L75.1,57.9z"/>
	<path class="st5" d="M69,59.2c-15.6,3.1-27.3,6.9-27.3,6.9c4.7-2,9.3-3.2,13.8-4.3c4.6-1.1,9.1-2.1,13.5-3L69,59.2z"/>
</g>
<linearGradient id="SVGID_5_" gradientUnits="userSpaceOnUse" x1="68.5362" y1="58.9579" x2="68.5362" y2="58.9579">
	<stop  offset="0" style="stop-color:#C41D27"/>
	<stop  offset="0.1301" style="stop-color:#CC3C45"/>
	<stop  offset="0.2669" style="stop-color:#D3575F"/>
	<stop  offset="0.3477" style="stop-color:#D66068"/>
	<stop  offset="1" style="stop-color:#E18E93"/>
</linearGradient>
<path class="st6" d="M68.5,59"/>
<g>
	<path class="st0" d="M128.6,40.6h3l1.7,4.8c0.3,0.7,0.6,1.9,0.6,1.9h0c0,0,0.3-1.2,0.6-1.9l1.7-4.8h3l0.9,11.4h-2.8l-0.4-5.2
		c-0.1-0.9,0-1.9,0-1.9h0c0,0-0.4,1.2-0.6,1.9l-1.2,3.3h-2.4l-1.2-3.3c-0.3-0.7-0.6-1.9-0.6-1.9h0c0,0,0.1,1.1,0,1.9l-0.4,5.2h-2.8
		L128.6,40.6z"/>
	<path class="st0" d="M148.3,49.7h-3.6l-0.7,2.4h-2.9l3.9-11.4h2.9l3.9,11.4H149L148.3,49.7z M146.5,43.2c0,0-0.3,1.2-0.5,2
		l-0.7,2.2h2.3l-0.6-2.2C146.8,44.5,146.5,43.2,146.5,43.2L146.5,43.2z"/>
	<path class="st0" d="M154.9,43h-3.5v-2.4h9.7V43h-3.5v9h-2.8V43z"/>
	<path class="st0" d="M162.8,40.6h2.8v4.6h4.2v-4.6h2.8v11.4h-2.8v-4.5h-4.2v4.5h-2.8V40.6z"/>
	<path class="st0" d="M175.4,40.6h7.2V43h-4.4v2.1h3.5v2.4h-3.5v2.2h4.6v2.4h-7.4V40.6z"/>
	<path class="st0" d="M185.5,40.6h3l1.7,4.8c0.3,0.7,0.6,1.9,0.6,1.9h0c0,0,0.3-1.2,0.6-1.9l1.7-4.8h3l0.9,11.4h-2.8l-0.4-5.2
		c-0.1-0.9,0-1.9,0-1.9h0c0,0-0.4,1.2-0.6,1.9l-1.2,3.3h-2.4l-1.2-3.3c-0.3-0.7-0.6-1.9-0.6-1.9h0c0,0,0.1,1.1,0,1.9l-0.4,5.2h-2.8
		L185.5,40.6z"/>
	<path class="st0" d="M205.3,49.7h-3.6l-0.7,2.4h-2.9l3.9-11.4h2.9l3.9,11.4H206L205.3,49.7z M203.5,43.2c0,0-0.3,1.2-0.5,2
		l-0.7,2.2h2.3l-0.6-2.2C203.8,44.5,203.5,43.2,203.5,43.2L203.5,43.2z"/>
	<path class="st0" d="M211.9,43h-3.5v-2.4h9.7V43h-3.5v9h-2.8V43z"/>
	<path class="st0" d="M219.7,40.6h2.8v11.4h-2.8V40.6z"/>
	<path class="st0" d="M230.6,40.4c2.8,0,4.3,1.6,4.3,1.6l-1.3,2.1c0,0-1.3-1.2-2.9-1.2c-2.2,0-3.2,1.6-3.2,3.3
		c0,1.7,1.1,3.4,3.2,3.4c1.7,0,3-1.4,3-1.4l1.4,2c0,0-1.6,1.9-4.6,1.9c-3.6,0-6-2.5-6-5.9C224.6,43,227.1,40.4,230.6,40.4z"/>
	<path class="st0" d="M242.8,49.7h-3.6l-0.7,2.4h-2.9l3.9-11.4h2.9l3.9,11.4h-2.9L242.8,49.7z M241,43.2c0,0-0.3,1.2-0.5,2l-0.7,2.2
		h2.3l-0.6-2.2C241.3,44.5,241,43.2,241,43.2L241,43.2z"/>
	<path class="st0" d="M247.8,40.6h2.8v9h4.7v2.4h-7.5V40.6z"/>
	<path class="st0" d="M256.5,49.5h2.6v2.6h-2.6V49.5z"/>
	<path class="st0" d="M133.2,56.3c3.5,0,6,2.6,6,5.8c0,3.4-2.5,6-6,6c-3.5,0-6-2.6-6-6C127.2,58.9,129.7,56.3,133.2,56.3z
		 M133.2,65.6c1.7,0,3.1-1.5,3.1-3.4c0-1.9-1.4-3.3-3.1-3.3s-3.1,1.4-3.1,3.3C130.1,64.1,131.5,65.6,133.2,65.6z"/>
	<path class="st0" d="M141.2,56.5h2.8v9h4.7v2.4h-7.5V56.5z"/>
	<path class="st0" d="M152,63.3l-3.8-6.8h3.2l1.3,2.8c0.4,0.8,0.7,1.6,0.7,1.6h0c0,0,0.3-0.9,0.7-1.6l1.3-2.8h3.2l-3.8,6.8v4.7H152
		V63.3z"/>
	<path class="st0" d="M160.4,56.5h3l1.7,4.8c0.3,0.7,0.6,1.9,0.6,1.9h0c0,0,0.3-1.2,0.6-1.9l1.7-4.8h3l0.9,11.4h-2.8l-0.4-5.2
		c-0.1-0.9,0-1.9,0-1.9h0c0,0-0.4,1.2-0.6,1.9l-1.2,3.3h-2.4l-1.2-3.3c-0.3-0.7-0.6-1.9-0.6-1.9h0c0,0,0.1,1.1,0,1.9l-0.4,5.2h-2.8
		L160.4,56.5z"/>
	<path class="st0" d="M174.4,56.5h4.8c2.2,0,3.7,1.6,3.7,3.9s-1.5,4-3.7,4h-2v3.5h-2.8V56.5z M178.6,62c1,0,1.5-0.7,1.5-1.6
		s-0.5-1.5-1.4-1.5h-1.4V62H178.6z"/>
	<path class="st0" d="M184.7,56.5h2.8v11.4h-2.8V56.5z"/>
	<path class="st0" d="M196.1,65.5h-3.6l-0.7,2.4h-2.9l3.9-11.4h2.9l3.9,11.4h-2.9L196.1,65.5z M194.3,59.1c0,0-0.3,1.2-0.5,2
		l-0.7,2.2h2.3l-0.6-2.2C194.6,60.4,194.3,59.1,194.3,59.1L194.3,59.1z"/>
	<path class="st0" d="M201.1,56.5h4.1c3.6,0,5.9,2.1,5.9,5.7c0,3.6-2.3,5.7-5.9,5.7h-4.1V56.5z M205.1,65.5c1.9,0,3.1-1.2,3.1-3.3
		c0-2.2-1.2-3.3-3.1-3.3h-1.2v6.6H205.1z"/>
	<path class="st0" d="M212.6,65.3h2.6v2.6h-2.6V65.3z"/>
	<path class="st0" d="M222.7,56.3c2.8,0,4.3,1.6,4.3,1.6l-1.3,2.1c0,0-1.3-1.2-2.9-1.2c-2.2,0-3.2,1.6-3.2,3.3
		c0,1.7,1.1,3.4,3.2,3.4c1.7,0,3-1.4,3-1.4l1.4,2c0,0-1.6,1.9-4.6,1.9c-3.6,0-6-2.5-6-5.9C216.7,58.9,219.3,56.3,222.7,56.3z"/>
	<path class="st0" d="M229.2,56.5h2.8v4.6h4.2v-4.6h2.8v11.4h-2.8v-4.5H232v4.5h-2.8V56.5z"/>
	<path class="st0" d="M127.7,73.3h0.8l1.3,3.1c0.1,0.3,0.3,0.8,0.3,0.8h0c0,0,0.2-0.4,0.3-0.8l1.3-3.1h0.8l0.5,5.6h-0.8l-0.3-3.6
		c0-0.3,0-0.8,0-0.8h0c0,0-0.2,0.5-0.3,0.8l-1.1,2.5h-0.7l-1.1-2.5c-0.1-0.3-0.3-0.8-0.3-0.8h0c0,0,0,0.5,0,0.8l-0.3,3.6h-0.8
		L127.7,73.3z"/>
	<path class="st0" d="M137.2,77.3h-2.1l-0.6,1.6h-0.8l2-5.6h0.8l2,5.6h-0.8L137.2,77.3z M136.1,74.1c0,0-0.1,0.5-0.2,0.8l-0.6,1.8
		h1.7l-0.6-1.8C136.3,74.6,136.1,74.1,136.1,74.1L136.1,74.1z"/>
	<path class="st0" d="M140.4,74h-1.9v-0.7h4.7V74h-1.9v5h-0.8V74z"/>
	<path class="st0" d="M144,73.3h0.8v2.5h2.9v-2.5h0.8v5.6h-0.8v-2.5h-2.9v2.5H144V73.3z"/>
	<path class="st0" d="M150.1,73.3h3.3V74h-2.5v1.8h2v0.7h-2v1.8h2.6v0.7h-3.4V73.3z"/>
	<path class="st0" d="M155.1,73.3h0.8l1.3,3.1c0.1,0.3,0.3,0.8,0.3,0.8h0c0,0,0.2-0.4,0.3-0.8l1.3-3.1h0.8l0.5,5.6h-0.8l-0.3-3.6
		c0-0.3,0-0.8,0-0.8h0c0,0-0.2,0.5-0.3,0.8l-1.1,2.5h-0.7l-1.1-2.5c-0.1-0.3-0.3-0.8-0.3-0.8h0c0,0,0,0.5,0,0.8l-0.3,3.6h-0.8
		L155.1,73.3z"/>
	<path class="st0" d="M164.6,77.3h-2.1l-0.6,1.6h-0.8l2-5.6h0.8l2,5.6h-0.8L164.6,77.3z M163.5,74.1c0,0-0.1,0.5-0.2,0.8l-0.6,1.8
		h1.7l-0.6-1.8C163.7,74.6,163.5,74.1,163.5,74.1L163.5,74.1z"/>
	<path class="st0" d="M167.7,74h-1.9v-0.7h4.7V74h-1.9v5h-0.8V74z"/>
	<path class="st0" d="M171.4,73.3h0.8v5.6h-0.8V73.3z"/>
	<path class="st0" d="M173.8,73.3h0.8v2.4h0.8l1.4-2.4h0.9l-1.6,2.7v0l1.7,3h-0.9l-1.5-2.6h-0.8v2.6h-0.8V73.3z"/>
	<path class="st0" d="M178.5,76.3h2.3V77h-2.3V76.3z"/>
	<path class="st0" d="M184.8,73.2c1.6,0,2.9,1.3,2.9,2.9c0,1.7-1.3,3-2.9,3s-2.9-1.3-2.9-3C181.9,74.5,183.2,73.2,184.8,73.2z
		 M184.8,78.3c1.2,0,2.1-1,2.1-2.2c0-1.2-0.9-2.2-2.1-2.2s-2.1,0.9-2.1,2.2C182.8,77.4,183.7,78.3,184.8,78.3z"/>
	<path class="st0" d="M189,73.3h0.8v5h2.5v0.7H189V73.3z"/>
	<path class="st0" d="M194.1,76.6l-1.9-3.3h0.9l1,1.9c0.2,0.3,0.3,0.7,0.3,0.7h0c0,0,0.2-0.4,0.3-0.7l1-1.9h0.9l-1.9,3.3v2.4h-0.8
		V76.6z"/>
	<path class="st0" d="M197.9,73.3h0.8l1.3,3.1c0.1,0.3,0.3,0.8,0.3,0.8h0c0,0,0.2-0.4,0.3-0.8l1.3-3.1h0.8l0.5,5.6h-0.8l-0.3-3.6
		c0-0.3,0-0.8,0-0.8h0c0,0-0.2,0.5-0.3,0.8l-1.1,2.5h-0.7l-1.1-2.5c-0.1-0.3-0.3-0.8-0.3-0.8h0c0,0,0,0.5,0,0.8l-0.3,3.6h-0.8
		L197.9,73.3z"/>
	<path class="st0" d="M204.6,73.3h2.1c1,0,1.8,0.7,1.8,1.8s-0.7,1.8-1.8,1.8h-1.3v2.1h-0.8V73.3z M206.5,76.2c0.7,0,1.1-0.4,1.1-1.1
		s-0.4-1.1-1.1-1.1h-1.2v2.2H206.5z"/>
	<path class="st0" d="M209.5,73.3h0.8v5.6h-0.8V73.3z"/>
	<path class="st0" d="M214.7,77.3h-2.1l-0.6,1.6h-0.8l2-5.6h0.8l2,5.6h-0.8L214.7,77.3z M213.7,74.1c0,0-0.1,0.5-0.2,0.8l-0.6,1.8
		h1.7l-0.6-1.8C213.8,74.6,213.7,74.1,213.7,74.1L213.7,74.1z"/>
	<path class="st0" d="M217.1,73.3h1.9c1.7,0,2.9,1,2.9,2.8c0,1.8-1.1,2.8-2.9,2.8h-1.9V73.3z M218.9,78.3c1.3,0,2.1-0.8,2.1-2.1
		c0-1.4-0.8-2.1-2.1-2.1h-1v4.3H218.9z"/>
	<path class="st0" d="M223.1,73.3h3.3V74h-2.5v1.8h2v0.7h-2v1.8h2.6v0.7h-3.4V73.3z"/>
	<path class="st0" d="M129.9,84.2c1.6,0,2.9,1.3,2.9,2.9c0,1.7-1.3,3-2.9,3s-2.9-1.3-2.9-3C127,85.5,128.3,84.2,129.9,84.2z
		 M129.9,89.3c1.2,0,2.1-1,2.1-2.2c0-1.2-0.9-2.2-2.1-2.2s-2.1,0.9-2.1,2.2C127.8,88.4,128.8,89.3,129.9,89.3z"/>
	<path class="st0" d="M134,84.3h0.8v5h2.5v0.7H134V84.3z"/>
	<path class="st0" d="M139.1,87.6l-1.9-3.3h0.9l1,1.9c0.2,0.3,0.3,0.7,0.3,0.7h0c0,0,0.2-0.4,0.3-0.7l1-1.9h0.9l-1.9,3.3v2.4h-0.8
		V87.6z"/>
	<path class="st0" d="M142.9,84.3h0.8l1.3,3.1c0.1,0.3,0.3,0.8,0.3,0.8h0c0,0,0.2-0.4,0.3-0.8l1.3-3.1h0.8l0.5,5.6h-0.8l-0.3-3.6
		c0-0.3,0-0.8,0-0.8h0c0,0-0.2,0.5-0.3,0.8l-1.1,2.5H145l-1.1-2.5c-0.1-0.3-0.3-0.8-0.3-0.8h0c0,0,0,0.5,0,0.8l-0.3,3.6h-0.8
		L142.9,84.3z"/>
	<path class="st0" d="M149.7,84.3h2.1c1,0,1.8,0.7,1.8,1.8s-0.7,1.8-1.8,1.8h-1.3v2.1h-0.8V84.3z M151.6,87.2c0.7,0,1.1-0.4,1.1-1.1
		s-0.4-1.1-1.1-1.1h-1.2v2.2H151.6z"/>
	<path class="st0" d="M154.6,84.3h0.8v5.6h-0.8V84.3z"/>
	<path class="st0" d="M159.8,88.3h-2.1l-0.6,1.6h-0.8l2-5.6h0.8l2,5.6h-0.8L159.8,88.3z M158.8,85.1c0,0-0.1,0.5-0.2,0.8l-0.6,1.8
		h1.7l-0.6-1.8C158.9,85.6,158.8,85.1,158.8,85.1L158.8,85.1z"/>
	<path class="st0" d="M162.1,84.3h1.9c1.7,0,2.9,1,2.9,2.8c0,1.8-1.1,2.8-2.9,2.8h-1.9V84.3z M163.9,89.3c1.3,0,2.1-0.8,2.1-2.1
		c0-1.4-0.8-2.1-2.1-2.1h-1v4.3H163.9z"/>
	<path class="st0" d="M168.1,84.3h3.3V85h-2.5v1.8h2v0.7h-2v1.8h2.6v0.7h-3.4V84.3z"/>
	<path class="st0" d="M172.8,88.7c0,0,0.6,0.6,1.4,0.6c0.5,0,1-0.3,1-0.8c0-1.2-2.7-1-2.7-2.7c0-0.9,0.8-1.6,1.8-1.6
		c1,0,1.6,0.6,1.6,0.6l-0.4,0.7c0,0-0.5-0.5-1.2-0.5c-0.6,0-1,0.4-1,0.8c0,1.2,2.7,0.9,2.7,2.7c0,0.9-0.7,1.6-1.8,1.6
		c-1.2,0-1.9-0.7-1.9-0.7L172.8,88.7z"/>
	<path class="st0" d="M179.4,84.3h1.9c1.7,0,2.9,1,2.9,2.8c0,1.8-1.1,2.8-2.9,2.8h-1.9V84.3z M181.2,89.3c1.3,0,2.1-0.8,2.1-2.1
		c0-1.4-0.8-2.1-2.1-2.1h-1v4.3H181.2z"/>
	<path class="st0" d="M185.4,84.3h3.3V85h-2.5v1.8h2v0.7h-2v1.8h2.6v0.7h-3.4V84.3z"/>
	<path class="st0" d="M192.4,84.3h0.8l1.3,3.1c0.1,0.3,0.3,0.8,0.3,0.8h0c0,0,0.2-0.4,0.3-0.8l1.3-3.1h0.8l0.5,5.6h-0.8l-0.3-3.6
		c0-0.3,0-0.8,0-0.8h0c0,0-0.2,0.5-0.3,0.8l-1.1,2.5h-0.7l-1.1-2.5c-0.1-0.3-0.3-0.8-0.3-0.8h0c0,0,0,0.5,0,0.8l-0.3,3.6H192
		L192.4,84.3z"/>
	<path class="st0" d="M202,88.3h-2.1l-0.6,1.6h-0.8l2-5.6h0.8l2,5.6h-0.8L202,88.3z M200.9,85.1c0,0-0.1,0.5-0.2,0.8l-0.6,1.8h1.7
		l-0.6-1.8C201,85.6,200.9,85.1,200.9,85.1L200.9,85.1z"/>
	<path class="st0" d="M205.1,85h-1.9v-0.7h4.7V85h-1.9v5h-0.8V85z"/>
	<path class="st0" d="M208.8,84.3h0.8v2.5h2.9v-2.5h0.8v5.6h-0.8v-2.5h-2.9v2.5h-0.8V84.3z"/>
	<path class="st0" d="M214.9,84.3h3.3V85h-2.5v1.8h2v0.7h-2v1.8h2.6v0.7h-3.4V84.3z M216.9,82.9h0.8l-0.8,1h-0.6L216.9,82.9z"/>
	<path class="st0" d="M219.8,84.3h0.8l1.3,3.1c0.1,0.3,0.3,0.8,0.3,0.8h0c0,0,0.2-0.4,0.3-0.8l1.3-3.1h0.8l0.5,5.6h-0.8l-0.3-3.6
		c0-0.3,0-0.8,0-0.8h0c0,0-0.2,0.5-0.3,0.8l-1.1,2.5h-0.7l-1.1-2.5c-0.1-0.3-0.3-0.8-0.3-0.8h0c0,0,0,0.5,0,0.8l-0.3,3.6h-0.8
		L219.8,84.3z"/>
	<path class="st0" d="M229.4,88.3h-2.1l-0.6,1.6h-0.8l2-5.6h0.8l2,5.6h-0.8L229.4,88.3z M228.3,85.1c0,0-0.1,0.5-0.2,0.8l-0.6,1.8
		h1.7l-0.6-1.8C228.4,85.6,228.3,85.1,228.3,85.1L228.3,85.1z"/>
	<path class="st0" d="M232.5,85h-1.9v-0.7h4.7V85h-1.9v5h-0.8V85z"/>
	<path class="st0" d="M236.1,84.3h0.8v5.6h-0.8V84.3z"/>
	<path class="st0" d="M241.1,84.2c1.6,0,2.9,1.3,2.9,2.9c0,0.7-0.3,1.4-0.7,1.9l0.7,0.6l-0.5,0.5l-0.7-0.7c-0.5,0.4-1.1,0.6-1.8,0.6
		c-1.6,0-2.9-1.3-2.9-3C238.2,85.5,239.4,84.2,241.1,84.2z M241.1,89.3c0.4,0,0.9-0.2,1.2-0.4l-0.7-0.6l0.5-0.5l0.6,0.7
		c0.3-0.4,0.4-0.8,0.4-1.3c0-1.2-0.9-2.2-2.1-2.2c-1.2,0-2.1,0.9-2.1,2.2C239,88.4,239.9,89.3,241.1,89.3z"/>
	<path class="st0" d="M245.2,84.3h0.8v3.6c0,0.9,0.6,1.4,1.4,1.4c0.9,0,1.4-0.5,1.4-1.4v-3.6h0.8v3.6c0,1.3-0.9,2.1-2.2,2.1
		s-2.2-0.8-2.2-2.1V84.3z"/>
	<path class="st0" d="M251.2,84.3h3.3V85H252v1.8h2v0.7h-2v1.8h2.6v0.7h-3.4V84.3z"/>
	<path class="st0" d="M255.9,88.7c0,0,0.6,0.6,1.4,0.6c0.5,0,1-0.3,1-0.8c0-1.2-2.7-1-2.7-2.7c0-0.9,0.8-1.6,1.8-1.6
		c1,0,1.6,0.6,1.6,0.6l-0.4,0.7c0,0-0.5-0.5-1.2-0.5c-0.6,0-1,0.4-1,0.8c0,1.2,2.7,0.9,2.7,2.7c0,0.9-0.7,1.6-1.8,1.6
		c-1.2,0-1.9-0.7-1.9-0.7L255.9,88.7z"/>
	<path class="st0" d="M129.9,95.2c1.6,0,2.9,1.3,2.9,2.9c0,1.7-1.3,3-2.9,3s-2.9-1.3-2.9-3C127,96.5,128.3,95.2,129.9,95.2z
		 M129.9,100.3c1.2,0,2.1-1,2.1-2.2c0-1.2-0.9-2.2-2.1-2.2s-2.1,0.9-2.1,2.2C127.8,99.4,128.8,100.3,129.9,100.3z"/>
	<path class="st0" d="M134,95.3h0.8v5h2.5v0.7H134V95.3z"/>
	<path class="st0" d="M138.4,95.3h0.8v5.6h-0.8V95.3z"/>
	<path class="st0" d="M141,95.3h0.8l1.3,3.1c0.1,0.3,0.3,0.8,0.3,0.8h0c0,0,0.2-0.4,0.3-0.8l1.3-3.1h0.8l0.5,5.6h-0.8l-0.3-3.6
		c0-0.3,0-0.8,0-0.8h0c0,0-0.2,0.5-0.3,0.8l-1.1,2.5h-0.7l-1.1-2.5c-0.1-0.3-0.3-0.8-0.3-0.8h0c0,0,0,0.5,0,0.8l-0.3,3.6h-0.8
		L141,95.3z"/>
	<path class="st0" d="M147.8,95.3h2.1c1,0,1.8,0.7,1.8,1.8s-0.7,1.8-1.8,1.8h-1.3v2.1h-0.8V95.3z M149.7,98.2c0.7,0,1.1-0.4,1.1-1.1
		s-0.4-1.1-1.1-1.1h-1.2v2.2H149.7z"/>
	<path class="st0" d="M152.7,95.3h0.8v5.6h-0.8V95.3z"/>
	<path class="st0" d="M157.9,99.3h-2.1l-0.6,1.6h-0.8l2-5.6h0.8l2,5.6h-0.8L157.9,99.3z M156.8,96.1c0,0-0.1,0.5-0.2,0.8l-0.6,1.8
		h1.7l-0.6-1.8C157,96.6,156.9,96.1,156.8,96.1L156.8,96.1z"/>
	<path class="st0" d="M160.2,95.3h1.9c1.7,0,2.9,1,2.9,2.8c0,1.8-1.1,2.8-2.9,2.8h-1.9V95.3z M162,100.3c1.3,0,2.1-0.8,2.1-2.1
		c0-1.4-0.8-2.1-2.1-2.1h-1v4.3H162z"/>
	<path class="st0" d="M166.2,95.3h0.8v5.6h-0.8V95.3z"/>
	<path class="st0" d="M170.8,95.3h1.9c1.7,0,2.9,1,2.9,2.8c0,1.8-1.1,2.8-2.9,2.8h-1.9V95.3z M172.6,100.3c1.3,0,2.1-0.8,2.1-2.1
		c0-1.4-0.8-2.1-2.1-2.1h-1v4.3H172.6z"/>
	<path class="st0" d="M176.8,95.3h3.3V96h-2.5v1.8h2v0.7h-2v1.8h2.6v0.7h-3.4V95.3z"/>
	<path class="st0" d="M181.4,95.3h0.8v5h2.5v0.7h-3.3V95.3z"/>
	<path class="st0" d="M185.7,95.3h0.8v5h2.5v0.7h-3.3V95.3z"/>
	<path class="st0" d="M192.9,99.3h-2.1l-0.6,1.6h-0.8l2-5.6h0.8l2,5.6h-0.8L192.9,99.3z M191.9,96.1c0,0-0.1,0.5-0.2,0.8l-0.6,1.8
		h1.7l-0.6-1.8C192,96.6,191.9,96.1,191.9,96.1L191.9,96.1z"/>
	<path class="st0" d="M197.6,95.3h0.8l1.3,3.1c0.1,0.3,0.3,0.8,0.3,0.8h0c0,0,0.2-0.4,0.3-0.8l1.3-3.1h0.8l0.5,5.6h-0.8l-0.3-3.6
		c0-0.3,0-0.8,0-0.8h0c0,0-0.2,0.5-0.3,0.8l-1.1,2.5h-0.7l-1.1-2.5c-0.1-0.3-0.3-0.8-0.3-0.8h0c0,0,0,0.5,0,0.8l-0.3,3.6h-0.8
		L197.6,95.3z"/>
	<path class="st0" d="M207.2,99.3H205l-0.6,1.6h-0.8l2-5.6h0.8l2,5.6h-0.8L207.2,99.3z M206.1,96.1c0,0-0.1,0.5-0.2,0.8l-0.6,1.8
		h1.7l-0.6-1.8C206.2,96.6,206.1,96.1,206.1,96.1L206.1,96.1z"/>
	<path class="st0" d="M210.3,96h-1.9v-0.7h4.7V96h-1.9v5h-0.8V96z"/>
	<path class="st0" d="M214,95.3h3.3V96h-2.5v1.8h2v0.7h-2v1.8h2.6v0.7H214V95.3z"/>
	<path class="st0" d="M218.9,95.3h0.8l1.3,3.1c0.1,0.3,0.3,0.8,0.3,0.8h0c0,0,0.2-0.4,0.3-0.8l1.3-3.1h0.8l0.5,5.6h-0.8l-0.3-3.6
		c0-0.3,0-0.8,0-0.8h0c0,0-0.2,0.5-0.3,0.8l-1.1,2.5H221l-1.1-2.5c-0.1-0.3-0.3-0.8-0.3-0.8h0c0,0,0,0.5,0,0.8l-0.3,3.6h-0.8
		L218.9,95.3z"/>
	<path class="st0" d="M228.4,99.3h-2.1l-0.6,1.6h-0.8l2-5.6h0.8l2,5.6H229L228.4,99.3z M227.4,96.1c0,0-0.1,0.5-0.2,0.8l-0.6,1.8
		h1.7l-0.6-1.8C227.5,96.6,227.4,96.1,227.4,96.1L227.4,96.1z"/>
	<path class="st0" d="M231.6,96h-1.9v-0.7h4.7V96h-1.9v5h-0.8V96z"/>
	<path class="st0" d="M235.2,95.3h0.8v5.6h-0.8V95.3z"/>
	<path class="st0" d="M240.1,95.2c1.4,0,2.1,0.7,2.1,0.7l-0.4,0.6c0,0-0.7-0.6-1.6-0.6c-1.3,0-2.1,1-2.1,2.2c0,1.2,0.8,2.2,2.1,2.2
		c1.1,0,1.7-0.7,1.7-0.7l0.4,0.6c0,0-0.8,0.9-2.2,0.9c-1.7,0-2.9-1.3-2.9-3C237.2,96.4,238.5,95.2,240.1,95.2z"/>
	<path class="st0" d="M246.3,99.3h-2.1l-0.6,1.6h-0.8l2-5.6h0.8l2,5.6h-0.8L246.3,99.3z M245.2,96.1c0,0-0.1,0.5-0.2,0.8l-0.6,1.8
		h1.7l-0.6-1.8C245.3,96.6,245.2,96.1,245.2,96.1L245.2,96.1z"/>
</g>
<g>
	
		<linearGradient id="SVGID_6_" gradientUnits="userSpaceOnUse" x1="90.1528" y1="45.0223" x2="22.6428" y2="143.3941" gradientTransform="matrix(0.9939 -0.1106 0.1106 0.9939 11.3599 -18.373)">
		<stop  offset="0.2322" style="stop-color:#FF0000"/>
		<stop  offset="0.2472" style="stop-color:#FF0808"/>
		<stop  offset="0.3288" style="stop-color:#FF3030"/>
		<stop  offset="0.4036" style="stop-color:#FF4C4C"/>
		<stop  offset="0.4684" style="stop-color:#FF5E5E"/>
		<stop  offset="0.516" style="stop-color:#FF6464"/>
		<stop  offset="0.5653" style="stop-color:#FF5E5E"/>
		<stop  offset="0.632" style="stop-color:#FF4D4D"/>
		<stop  offset="0.7085" style="stop-color:#FF3030"/>
		<stop  offset="0.7918" style="stop-color:#FF0909"/>
		<stop  offset="0.8096" style="stop-color:#FF0000"/>
		<stop  offset="0.8347" style="stop-color:#FF0505"/>
		<stop  offset="0.8636" style="stop-color:#FF1313"/>
		<stop  offset="0.8944" style="stop-color:#FF2A2A"/>
		<stop  offset="0.9265" style="stop-color:#FF4A4A"/>
		<stop  offset="0.9592" style="stop-color:#FF7373"/>
		<stop  offset="0.9865" style="stop-color:#FF9B9B"/>
	</linearGradient>
	<path class="st7" d="M52.5,109.1c-0.2-0.1-0.3-0.2-0.4-0.3c-5.5-1.8-9.3-7.3-8.8-13c0.1-1.4,0.5-2.7,1-4.1c0.5-1.4,1.2-2.8,2.2-4.3
		c0.3-0.4,0.6-0.9,1-1.3l0,0c-21.1,22.8,4.9,52.5,26.2,31.7c1.3-1.5,2.3-3.2,3.2-4.8c-1.9,0.3-3.8,0.4-5.7,0.4
		C64.5,113.4,58.2,111.8,52.5,109.1z"/>
	
		<linearGradient id="SVGID_7_" gradientUnits="userSpaceOnUse" x1="89.4923" y1="44.569" x2="21.9823" y2="142.9408" gradientTransform="matrix(0.9939 -0.1106 0.1106 0.9939 11.3599 -18.373)">
		<stop  offset="0.2322" style="stop-color:#FF0000"/>
		<stop  offset="0.2464" style="stop-color:#FF0C0C"/>
		<stop  offset="0.3124" style="stop-color:#FF3F3F"/>
		<stop  offset="0.3746" style="stop-color:#FF6767"/>
		<stop  offset="0.4311" style="stop-color:#FF8383"/>
		<stop  offset="0.48" style="stop-color:#FF9595"/>
		<stop  offset="0.516" style="stop-color:#FF9B9B"/>
		<stop  offset="0.5533" style="stop-color:#FF9595"/>
		<stop  offset="0.6038" style="stop-color:#FF8484"/>
		<stop  offset="0.6617" style="stop-color:#FF6767"/>
		<stop  offset="0.7252" style="stop-color:#FF4040"/>
		<stop  offset="0.7925" style="stop-color:#FF0E0E"/>
		<stop  offset="0.8096" style="stop-color:#FF0000"/>
		<stop  offset="0.8347" style="stop-color:#FF0505"/>
		<stop  offset="0.8636" style="stop-color:#FF1313"/>
		<stop  offset="0.8944" style="stop-color:#FF2A2A"/>
		<stop  offset="0.9265" style="stop-color:#FF4A4A"/>
		<stop  offset="0.9592" style="stop-color:#FF7373"/>
		<stop  offset="0.9865" style="stop-color:#FF9B9B"/>
	</linearGradient>
	<path class="st8" d="M80,105.2c4.8-14.5-2-36.6-2-36.6c-2.2-8.6-3.2-16.2-3-18.3c0.4-4.2,1.6-8.1,3.7-10.9c0.7-0.9,1.6-1.7,2.6-2.4
		c-2.7-0.8-5.5-1.3-8.4-1.5c-0.1,0.1-0.2,0.2-0.2,0.3c-1.6,2.1-3,4.3-3.6,6.7c-1.7,4.3-1,13.5-0.6,16.5c0,0,4,36.4-4,46.7
		c2.1,0.4,4.3,0.6,6.6,0.6C74.2,106.3,77.2,105.9,80,105.2z"/>
	
		<linearGradient id="SVGID_8_" gradientUnits="userSpaceOnUse" x1="86.7878" y1="42.7129" x2="19.2777" y2="141.0848" gradientTransform="matrix(0.9939 -0.1106 0.1106 0.9939 11.3599 -18.373)">
		<stop  offset="0.2322" style="stop-color:#FF0000"/>
		<stop  offset="0.2472" style="stop-color:#FF0808"/>
		<stop  offset="0.3288" style="stop-color:#FF3030"/>
		<stop  offset="0.4036" style="stop-color:#FF4C4C"/>
		<stop  offset="0.4684" style="stop-color:#FF5E5E"/>
		<stop  offset="0.516" style="stop-color:#FF6464"/>
		<stop  offset="0.5653" style="stop-color:#FF5E5E"/>
		<stop  offset="0.632" style="stop-color:#FF4D4D"/>
		<stop  offset="0.7085" style="stop-color:#FF3030"/>
		<stop  offset="0.7918" style="stop-color:#FF0909"/>
		<stop  offset="0.8096" style="stop-color:#FF0000"/>
		<stop  offset="0.8417" style="stop-color:#FF0505"/>
		<stop  offset="0.8787" style="stop-color:#FF1313"/>
		<stop  offset="0.9179" style="stop-color:#FF2A2A"/>
		<stop  offset="0.9586" style="stop-color:#FF4A4A"/>
		<stop  offset="0.9865" style="stop-color:#FF6464"/>
	</linearGradient>
	<path class="st9" d="M99.2,43c-0.4,1.6-1.3,3-2.6,4.2c-1.4,1.3-3.1,2.5-4.9,3.6l0,0c16.6-9.2,10.8-23.8-4.2-22.7
		c-2.2,0.2-4.4,0.7-6.4,1.4c5.3,1.3,10.1,3.5,14.4,6.5C98.4,37.7,99.8,40.5,99.2,43z"/>
</g>
</svg>
